# xmcd
#
# Track frame offsets: 
#        150
#        12608
#        30083
#        46268
#        67573
#        83869
#        102218
#        128667
#        152677
#        168888
#        192283
#        210728
#        228240
#        254750
#        275610
#        293384
#        309612
#        330462
#
# Disc length: 4747 seconds
#
# Revision: 1
# Processed by: cddbd v1.5.2PL0 Copyright (c) Steve Scherf et al.
# Submitted via: ExactAudioCopy v1.3
#
DISCID=e6128912
DTITLE=Various Artist - Akella Presents - vol. 171 - Electric Blues  
DTITLE=CD2
DYEAR=2019
DGENRE=Blues
TTITLE0=Michael van Merwyk - New Shoes
TTITLE1=James Monroe - Writer's Block Blues
TTITLE2=M Train - Six Pack Full Of Blues
TTITLE3=Mike Sponza - 1966 - Spanish Child
TTITLE4=Uni Debess - I'm Ready
TTITLE5=Dave Steffen Band - The Storm Is Gone
TTITLE6=Hammer Smith Band - World Of Pain
TTITLE7=The Dick Powell Band - Can't Take My Blues
TTITLE8=Big Al And The Heavyweights - Millionaire Baby
TTITLE9=Kenny Beedy Eyes Smith - No Need Brotha'
TTITLE10=Dashboard Rattle - Smoke Stack Town
TTITLE11=The Beauchesnes - You're No Princess
TTITLE12=Eric Clapton - Help Me Up
TTITLE13=Call Me Mildy - All I Need Is Your Love
TTITLE14=Dickie Peltier - Fadin' Out
TTITLE15=The Dan Lawson Band - Play The Blues
TTITLE16=Mike Sponza - 1969 - Blues for the Sixties
TTITLE17=Big Joe and The Dynaflows - World Gone Wrong
EXTD=
EXTT0=
EXTT1=
EXTT2=
EXTT3=
EXTT4=
EXTT5=
EXTT6=
EXTT7=
EXTT8=
EXTT9=
EXTT10=
EXTT11=
EXTT12=
EXTT13=
EXTT14=
EXTT15=
EXTT16=
EXTT17=
PLAYORDER=
